<?xml version="1.0" encoding="utf-8"?>
<!-- Generator: Adobe Illustrator 23.1.0, SVG Export Plug-In . SVG Version: 6.00 Build 0)  -->
<svg version="1.1" id="Layer_1" xmlns="http://www.w3.org/2000/svg" xmlns:xlink="http://www.w3.org/1999/xlink" x="0px" y="0px"
	 viewBox="0 0 80 80" style="enable-background:new 0 0 80 80;" xml:space="preserve">
<style type="text/css">
	.st0{fill:#FFFFFF;}
</style>
<path class="st0" d="M40,0C17.9,0,0,17.9,0,40s17.9,40,40,40s40-17.9,40-40S62.1,0,40,0z M40,78C19,78,2,61,2,40S19,2,40,2
	s38,17,38,38S61,78,40,78z"/>
<path class="st0" d="M40,6.6C21.6,6.6,6.6,21.6,6.6,40s15,33.4,33.4,33.4s33.4-15,33.4-33.4S58.4,6.6,40,6.6z M40,71.4
	C22.7,71.4,8.6,57.3,8.6,40S22.7,8.6,40,8.6S71.4,22.7,71.4,40S57.3,71.4,40,71.4z"/>
<path class="st0" d="M49.4,17.2c0-0.6-0.4-1-1-1s-1,0.4-1,1c0,0.9-0.1,1.7-0.3,2.5H32.9c-0.2-0.8-0.3-1.6-0.3-2.5c0-0.6-0.4-1-1-1
	s-1,0.4-1,1c0,5.7,3.7,8.7,7.7,11.4c-3.9,2.7-7.7,5.8-7.7,11.4s3.7,8.7,7.7,11.4c-3.9,2.7-7.7,5.8-7.7,11.4c0,0.6,0.4,1,1,1
	s1-0.4,1-1c0-0.9,0.1-1.7,0.3-2.5h14.2c0.2,0.8,0.3,1.6,0.3,2.5c0,0.6,0.4,1,1,1s1-0.4,1-1c0-5.7-3.7-8.7-7.7-11.4
	c3.9-2.7,7.7-5.8,7.7-11.4s-3.7-8.7-7.7-11.4C45.7,25.9,49.4,22.8,49.4,17.2z M47.4,40c0,0.9-0.1,1.8-0.4,2.6H32.9
	c-0.2-0.8-0.4-1.6-0.4-2.6s0.1-1.8,0.4-2.6H47C47.3,38.2,47.4,39.1,47.4,40z M46.2,58.3H33.8c1.4-2.3,3.7-4,6.2-5.7
	C42.5,54.3,44.8,56,46.2,58.3z M40,50.2c-2.5-1.7-4.8-3.4-6.2-5.6h12.4C44.8,46.8,42.5,48.5,40,50.2z M46.2,35.4H33.8
	c1.4-2.3,3.7-4,6.2-5.6C42.5,31.5,44.8,33.2,46.2,35.4z M40,27.4c-2.5-1.7-4.8-3.4-6.2-5.7h12.4C44.8,24,42.5,25.7,40,27.4z"/>
</svg>
